<?xml version="1.0" encoding="UTF-8" standalone="no"?>
<!DOCTYPE svg PUBLIC "-//W3C//DTD SVG 1.1//EN" "http://www.w3.org/Graphics/SVG/1.1/DTD/svg11.dtd">
<!-- Generated by Microsoft Visio, SVG Export guidance-nva-ha.svg PIP-UDR switch - complete -->
<svg xmlns="http://www.w3.org/2000/svg" xmlns:xlink="http://www.w3.org/1999/xlink" xmlns:ev="http://www.w3.org/2001/xml-events"
		xmlns:v="http://schemas.microsoft.com/visio/2003/SVGExtensions/" width="17in" height="11in" viewBox="0 0 1224 792"
		xml:space="preserve" color-interpolation-filters="sRGB" class="st31">
	<v:documentProperties v:langID="1033" v:viewMarkup="false">
		<v:userDefs>
			<v:ud v:nameU="msvNoAutoConnect" v:val="VT0(1):26"/>
		</v:userDefs>
	</v:documentProperties>

	<style type="text/css">
	<![CDATA[
		.st1 {fill:#d8d8d8;stroke:none;stroke-linecap:round;stroke-linejoin:round;stroke-width:0.24}
		.st2 {fill:none;stroke:#0078d7;stroke-dasharray:0,3.3;stroke-linecap:round;stroke-linejoin:round;stroke-width:1.1}
		.st3 {fill:#0078d7;stroke:none;stroke-linecap:butt;stroke-width:0.653846}
		.st4 {fill:#0078d7;font-family:Segoe UI;font-size:1.5em}
		.st5 {font-size:1em}
		.st6 {fill:#00188f;stroke:none;stroke-linecap:butt;stroke-width:0.75}
		.st7 {fill:#00188f;font-family:Segoe UI;font-size:1.5em}
		.st8 {fill:#f2f2f2;stroke:#000000;stroke-dasharray:0,6.75;stroke-linecap:round;stroke-linejoin:round;stroke-width:2.25}
		.st9 {fill:#000000;fill-opacity:1;stroke:#000000;stroke-opacity:1;stroke-width:0.47169811320755}
		.st10 {fill:#000000;font-family:Segoe UI;font-size:1.5em}
		.st11 {fill:none;stroke:#0000ff;stroke-dasharray:5.25,3.75;stroke-linecap:round;stroke-linejoin:round;stroke-width:0.75}
		.st12 {fill:#0070c0;stroke:none;stroke-linecap:butt;stroke-width:0.75}
		.st13 {fill:#0078d7;stroke:none;stroke-linecap:butt;stroke-width:0.75}
		.st14 {marker-end:url(#mrkr4-93);stroke:#0070c0;stroke-linecap:butt;stroke-width:2.5}
		.st15 {fill:#0070c0;fill-opacity:1;stroke:#0070c0;stroke-opacity:1;stroke-width:0.49800796812749}
		.st16 {fill:#0078d7;stroke:none;stroke-linecap:butt;stroke-width:0.6375}
		.st17 {fill:#0078d7;stroke:none;stroke-linecap:round;stroke-linejoin:round;stroke-width:0.75}
		.st18 {fill:#ffffff;font-family:Segoe UI;font-size:1.5em}
		.st19 {marker-end:url(#mrkr4-116);stroke:#9dbb61;stroke-linecap:butt;stroke-width:5}
		.st20 {fill:#9dbb61;fill-opacity:1;stroke:#9dbb61;stroke-opacity:1;stroke-width:0.66489361702128}
		.st21 {fill:#ffffff;stroke:#0078d7;stroke-linecap:round;stroke-linejoin:round;stroke-width:0.75}
		.st22 {marker-end:url(#mrkr4-133);stroke:#f59d56;stroke-linecap:butt;stroke-width:5}
		.st23 {fill:#f59d56;fill-opacity:1;stroke:#f59d56;stroke-opacity:1;stroke-width:0.66489361702128}
		.st24 {stroke:#9dbb61;stroke-linecap:butt;stroke-width:5}
		.st25 {fill:#ffffff;stroke:none;stroke-linecap:butt;stroke-width:7.2}
		.st26 {stroke:#f59d56;stroke-linecap:butt;stroke-width:5}
		.st27 {stroke:#0070c0;stroke-linecap:butt;stroke-width:2.5}
		.st28 {marker-end:url(#mrkr4-207);stroke:#c05046;stroke-linecap:butt;stroke-width:5}
		.st29 {fill:#c05046;fill-opacity:1;stroke:#c05046;stroke-opacity:1;stroke-width:0.66489361702128}
		.st30 {stroke:#c05046;stroke-linecap:butt;stroke-width:5}
		.st31 {fill:none;fill-rule:evenodd;font-size:12px;overflow:visible;stroke-linecap:square;stroke-miterlimit:3}
	]]>
	</style>

	<defs id="Markers">
		<g id="lend13">
			<path d="M 3 1 L 0 0 L 3 -1 L 3 1 " style="stroke:none"/>
		</g>
		<marker id="mrkr13-31" class="st9" v:arrowType="13" v:arrowSize="2" v:setback="6.36" refX="6.36" orient="auto"
				markerUnits="strokeWidth" overflow="visible">
			<use xlink:href="#lend13" transform="scale(2.12) "/>
		</marker>
		<marker id="mrkr13-33" class="st9" v:arrowType="13" v:arrowSize="2" v:setback="6.36" refX="-6.36" orient="auto"
				markerUnits="strokeWidth" overflow="visible">
			<use xlink:href="#lend13" transform="scale(-2.12,-2.12) "/>
		</marker>
		<g id="lend4">
			<path d="M 2 1 L 0 0 L 2 -1 L 2 1 " style="stroke:none"/>
		</g>
		<marker id="mrkr4-93" class="st15" v:arrowType="4" v:arrowSize="2" v:setback="4.016" refX="-4.016" orient="auto"
				markerUnits="strokeWidth" overflow="visible">
			<use xlink:href="#lend4" transform="scale(-2.008,-2.008) "/>
		</marker>
		<marker id="mrkr4-116" class="st20" v:arrowType="4" v:arrowSize="2" v:setback="3.008" refX="-3.008" orient="auto"
				markerUnits="strokeWidth" overflow="visible">
			<use xlink:href="#lend4" transform="scale(-1.504,-1.504) "/>
		</marker>
		<marker id="mrkr4-133" class="st23" v:arrowType="4" v:arrowSize="2" v:setback="3.008" refX="-3.008" orient="auto"
				markerUnits="strokeWidth" overflow="visible">
			<use xlink:href="#lend4" transform="scale(-1.504,-1.504) "/>
		</marker>
		<marker id="mrkr4-207" class="st29" v:arrowType="4" v:arrowSize="2" v:setback="3.008" refX="-3.008" orient="auto"
				markerUnits="strokeWidth" overflow="visible">
			<use xlink:href="#lend4" transform="scale(-1.504,-1.504) "/>
		</marker>
	</defs>
	<g v:mID="15" v:index="7" v:groupContext="foregroundPage">
		<title>PIP-UDR switch - complete</title>
		<v:pageProperties v:drawingScale="1" v:pageScale="1" v:drawingUnits="19" v:shadowOffsetX="9" v:shadowOffsetY="-9"/>
		<v:layer v:name="000-All" v:index="0"/>
		<g id="shape1000-1" v:mID="1000" v:groupContext="shape" v:layerMember="0" transform="translate(36.0001,-265.5)">
			<title>Rectangle.49</title>
			<v:userDefs>
				<v:ud v:nameU="visVersion" v:val="VT0(15):26"/>
			</v:userDefs>
			<rect x="0" y="297" width="891" height="495" class="st1"/>
		</g>
		<g id="shape1001-3" v:mID="1001" v:groupContext="shape" v:layerMember="0" transform="translate(54.0001,-283.5)">
			<title>Virtual Network Box</title>
			<path d="M0 792 L855 792 L855 387 L0 387 L0 792 Z" class="st2"/>
		</g>
		<g id="group1002-5" transform="translate(56.0643,-700.5)" v:mID="1002" v:groupContext="group" v:layerMember="0">
			<title>Microsoft Azure</title>
			<desc>Azure Vnet 10.0.0.0/16</desc>
			<g id="shape1003-6" v:mID="1003" v:groupContext="shape" v:layerMember="0" transform="translate(-3.67706E-13,-11.1719)">
				<title>Sheet.1003</title>
				<path d="M44.3 782.45 C42.35 782.45 40.73 783.62 39.95 785.31 L12.21 785.31 C7.53 785.31 3.7 781.54 3.7 776.8 C3.7
							 772.12 7.47 768.29 12.21 768.29 L12.28 768.29 L12.34 768.29 L16.17 768.29 C16.37 767.32 16.63 766.34
							 17.02 765.5 C17.15 765.17 17.34 764.85 17.54 764.53 C19.49 761.15 23.12 758.87 27.35 758.87 C31.05 758.87
							 34.36 760.69 36.44 763.49 C37.61 762.97 38.84 762.51 40.14 762.25 C37.48 757.96 32.74 755.17 27.35 755.17
							 C21.04 755.17 15.59 759.07 13.38 764.59 C13.38 764.59 13.38 764.65 13.38 764.65 C13.38 764.65 13.38
							 764.59 13.38 764.59 L12.28 764.59 C5.52 764.59 -0 770.05 0 776.87 C0 783.69 5.46 789.14 12.28 789.14
							 L40.01 789.14 C40.73 790.83 42.41 792 44.36 792 C46.96 792 49.1 789.92 49.1 787.26 C49.1 784.6 46.9
							 782.45 44.3 782.45 Z" class="st3"/>
			</g>
			<g id="shape1004-8" v:mID="1004" v:groupContext="shape" v:layerMember="0" transform="translate(15.9134,2.27374E-13)">
				<title>Sheet.1004</title>
				<path d="M43.58 761.93 C40.79 756.34 35.01 752.44 28.38 752.44 C20.27 752.44 13.51 758.09 11.82 765.69 C7.86 766.08
							 4.48 768.16 2.27 771.28 L22.47 771.28 C23.84 769.53 25.98 768.42 28.38 768.42 C32.54 768.42 35.92 771.8
							 35.92 775.96 C35.92 780.11 32.54 783.49 28.38 783.49 C25.98 783.49 23.9 782.39 22.47 780.63 L0 780.63
							 C0.91 787.06 6.43 792 13.06 792 C13.06 792 13.12 792 13.12 792 L43.39 792 C43.39 792 43.45 792 43.45
							 792 C51.77 792 58.52 785.24 58.52 776.93 C58.52 768.68 51.83 761.99 43.58 761.93 Z" class="st3"/>
			</g>
			<g id="shape1002-10" v:mID="1002" v:groupContext="groupContent" v:layerMember="0">
				<v:textBlock v:margins="rect(0,0,0,0)" v:verticalAlign="0"/>
				<v:textRect cx="143.482" cy="771" width="127.04" height="51.6088"/>
				<text x="79.96" y="761.4" class="st4" v:langID="1033"><v:paragraph/><v:tabList/>Azure Vnet<v:newlineChar/><tspan
							x="79.96" dy="1.2em" class="st5">10.0.0.0/16</tspan></text>			</g>
		</g>
		<a xlink:href="http://52.183.37.254">
			<g id="group1032-13" transform="translate(67.5001,-180)" v:mID="1032" v:groupContext="group" v:layerMember="0">
				<title>Web.1266</title>
				<desc>Internet clients</desc>
				<g id="shape1033-14" v:mID="1033" v:groupContext="shape" v:layerMember="0">
					<title>Sheet.1033</title>
					<path d="M36 725.02 C53.08 725.02 66.98 738.92 66.98 756 C66.98 773.08 53.08 786.98 36 786.98 C18.92 786.98 5.02
								 773.08 5.02 756 C5.02 738.92 18.92 725.02 36 725.02 ZM36 720 C16.12 720 0 736.12 0 756 C0 775.88
								 16.12 792 36 792 C55.88 792 72 775.88 72 756 C72 736.12 55.88 720 36 720 Z" class="st6"/>
				</g>
				<g id="shape1034-16" v:mID="1034" v:groupContext="shape" v:layerMember="0" transform="translate(10.0482,-11.2136)">
					<title>Sheet.1034</title>
					<path d="M51.26 789 C50.36 790.06 49.39 791.06 48.37 792 C42.64 787.06 34.58 783.96 25.63 783.96 C16.68 783.96
								 8.62 787.06 2.89 792 C1.88 791.06 0.9 790.06 0 789 C6.48 783.32 15.56 779.77 25.63 779.77 C35.7
								 779.77 44.78 783.32 51.26 789 Z" class="st6"/>
				</g>
				<g id="shape1035-18" v:mID="1035" v:groupContext="shape" v:layerMember="0" transform="translate(10.6945,-48.5581)">
					<title>Sheet.1035</title>
					<path d="M51.26 782.78 C50.36 781.71 49.39 780.72 48.37 779.77 C42.64 784.71 34.58 787.81 25.63 787.81 C16.68
								 787.81 8.62 784.71 2.9 779.77 C1.87 780.72 0.9 781.71 0 782.78 C6.48 788.45 15.56 792 25.63 792
								 C35.7 792 44.78 788.45 51.26 782.78 Z" class="st6"/>
				</g>
				<g id="shape1036-20" v:mID="1036" v:groupContext="shape" v:layerMember="0" transform="translate(1.67442,-33.4884)">
					<title>Sheet.1036</title>
					<rect x="0" y="786.977" width="66.9767" height="5.02326" class="st6"/>
				</g>
				<g id="shape1037-22" v:mID="1037" v:groupContext="shape" v:layerMember="0" transform="translate(33.4884,-1.41321)">
					<title>Sheet.1037</title>
					<rect x="0" y="723.349" width="5.02326" height="68.6512" class="st6"/>
				</g>
				<g id="shape1038-24" v:mID="1038" v:groupContext="shape" v:layerMember="0" transform="translate(12.1395,-2.09302)">
					<title>Sheet.1038</title>
					<path d="M23.86 792 C10.7 792 0 776.79 0 758.09 C0 739.39 10.7 724.19 23.86 724.19 C37.02 724.19 47.72 739.39
								 47.72 758.09 C47.72 776.79 37.02 792 23.86 792 ZM23.86 728.37 C13.01 728.37 4.19 741.71 4.19 758.09
								 C4.19 774.48 13.01 787.81 23.86 787.81 C34.71 787.81 43.53 774.48 43.53 758.09 C43.53 741.71 34.71
								 728.37 23.86 728.37 Z" class="st6"/>
				</g>
				<g id="shape1032-26" v:mID="1032" v:groupContext="groupContent" v:layerMember="0">
					<v:textBlock v:margins="rect(0,0,0,0)" v:verticalAlign="0"/>
					<v:textRect cx="35.953" cy="836.734" width="160.75" height="70.3256"/>
					<text x="-22.92" y="817.77" class="st7" v:langID="1033"><v:paragraph v:horizAlign="1"/><v:tabList/>Internet clients</text>				</g>
			</g>
		</a>
		<g id="shape1009-28" v:mID="1009" v:groupContext="shape" v:layerMember="0" transform="translate(76.5,-306)">
			<title>Sheet.1009</title>
			<desc>DMZ - external 10.0.0.64/27</desc>
			<v:textBlock v:margins="rect(4,4,4,4)" v:verticalAlign="0"/>
			<v:textRect cx="67.5443" cy="444" width="135.09" height="48"/>
			<path d="M0 792 L135.09 792 L135.09 468 L0 468 L0 792 Z" class="st8"/>
			<text x="4" y="440.2" class="st10" v:langID="1033"><v:paragraph/><v:tabList/>DMZ - external<v:newlineChar/><tspan x="4"
						dy="1.2em" class="st5">10.0.0.64/27</tspan></text>		</g>
		<g id="shape1145-36" v:mID="1145" v:groupContext="shape" v:layerMember="0" transform="translate(218.463,-378)">
			<title>Availability set.1145</title>
			<desc>Availability set</desc>
			<v:textBlock v:margins="rect(4,4,4,4)" v:verticalAlign="0"/>
			<v:textRect cx="51.5367" cy="670.795" width="103.08" height="242.409"/>
			<path d="M0 792 L103.07 792 L103.07 549.59 L0 549.59 L0 792 Z" class="st11"/>
			<text x="8.67" y="569.79" class="st4" v:langID="1033"><v:paragraph v:horizAlign="1"/><v:tabList/>Availability <tspan
						x="39.96" dy="1.2em" class="st5">set</tspan></text>		</g>
		<g id="group1011-40" transform="translate(224.337,-386.1)" v:mID="1011" v:groupContext="group" v:layerMember="0">
			<title>Computer.1061</title>
			<desc>Active NVA</desc>
			<g id="shape1012-41" v:mID="1012" v:groupContext="shape" v:layerMember="0" transform="translate(13.2949,-3.41061E-13)">
				<title>Sheet.1012</title>
				<path d="M41.07 774 L39.01 774 L18.64 774 L17.58 774 C20.41 784.79 16.61 786.34 0 786.34 L0 792 L21.13 792 L36.55
							 792 L56.49 792 L56.49 786.34 C39.87 786.34 38.24 784.8 41.07 774 Z" class="st12"/>
			</g>
			<g id="shape1013-43" v:mID="1013" v:groupContext="shape" v:layerMember="0" transform="translate(0,-17.9984)">
				<title>Sheet.1013</title>
				<path d="M81.18 723.6 L4.69 723.6 C2.09 723.6 0 726.12 0 728.93 L0 786.71 C0 789.51 2.09 792 4.69 792 L81.18 792
							 C83.77 792 86.4 789.51 86.4 786.71 L86.4 728.93 C86.4 726.11 83.77 723.6 81.18 723.6 ZM79.76 730.8 L79.76
							 784.8 L6.65 784.8 L6.65 730.8 L79.96 730.68 L79.76 730.8 Z" class="st12"/>
			</g>
			<g id="shape1011-45" v:mID="1011" v:groupContext="groupContent" v:layerMember="0">
				<v:textBlock v:margins="rect(0,0,0,0)"/>
				<v:textRect cx="43.2" cy="741.6" width="86.4" height="72"/>
				<text x="18.99" y="736.2" class="st10" v:langID="1033"><v:paragraph v:horizAlign="1"/><v:tabList/>Active<v:newlineChar/><tspan
							x="25.07" dy="1.2em" class="st5">NVA</tspan></text>			</g>
		</g>
		<g id="group1068-48" transform="translate(224.337,-477)" v:mID="1068" v:groupContext="group" v:layerMember="0">
			<title>Computer.1068</title>
			<desc>Passive NVA</desc>
			<g id="shape1069-49" v:mID="1069" v:groupContext="shape" v:layerMember="0" transform="translate(13.2949,-3.41061E-13)">
				<title>Sheet.1069</title>
				<path d="M41.07 774 L39.01 774 L18.64 774 L17.58 774 C20.41 784.79 16.61 786.34 0 786.34 L0 792 L21.13 792 L36.55
							 792 L56.49 792 L56.49 786.34 C39.87 786.34 38.24 784.8 41.07 774 Z" class="st12"/>
			</g>
			<g id="shape1070-51" v:mID="1070" v:groupContext="shape" v:layerMember="0" transform="translate(0,-17.9984)">
				<title>Sheet.1070</title>
				<path d="M81.18 723.6 L4.69 723.6 C2.09 723.6 0 726.12 0 728.93 L0 786.71 C0 789.51 2.09 792 4.69 792 L81.18 792
							 C83.77 792 86.4 789.51 86.4 786.71 L86.4 728.93 C86.4 726.11 83.77 723.6 81.18 723.6 ZM79.76 730.8 L79.76
							 784.8 L6.65 784.8 L6.65 730.8 L79.96 730.68 L79.76 730.8 Z" class="st12"/>
			</g>
			<g id="shape1068-53" v:mID="1068" v:groupContext="groupContent" v:layerMember="0">
				<v:textBlock v:margins="rect(0,0,0,0)"/>
				<v:textRect cx="43.2" cy="741.6" width="86.4" height="72"/>
				<text x="14.75" y="736.2" class="st10" v:langID="1033"><v:paragraph v:horizAlign="1"/><v:tabList/>Passive<v:newlineChar/><tspan
							x="25.07" dy="1.2em" class="st5">NVA</tspan></text>			</g>
		</g>
		<g id="group1176-56" transform="translate(670.5,-306)" v:mID="1176" v:groupContext="group">
			<title>Sheet.1176</title>
			<g id="shape1040-57" v:mID="1040" v:groupContext="shape" v:layerMember="0">
				<title>Sheet.1040</title>
				<desc>Web tier 10.0.1.0/24</desc>
				<v:textBlock v:margins="rect(4,4,4,4)" v:verticalAlign="0"/>
				<v:textRect cx="108" cy="444" width="216" height="48"/>
				<path d="M0 792 L216 792 L216 468 L0 468 L0 792 Z" class="st8"/>
				<text x="4" y="440.2" class="st10" v:langID="1033"><v:paragraph/><v:tabList/>Web tier<v:newlineChar/><tspan x="4"
							dy="1.2em" class="st5">10.0.1.0/24</tspan></text>			</g>
			<g id="shape1041-63" v:mID="1041" v:groupContext="shape" v:layerMember="0" transform="translate(101.463,-9.59055)">
				<title>Availability set.117</title>
				<desc>Availability set</desc>
				<v:textBlock v:margins="rect(4,4,4,4)" v:verticalAlign="0"/>
				<v:textRect cx="51.5367" cy="639.591" width="103.08" height="304.819"/>
				<path d="M0 792 L103.07 792 L103.07 487.18 L0 487.18 L0 792 Z" class="st11"/>
				<text x="8.67" y="507.38" class="st4" v:langID="1033"><v:paragraph v:horizAlign="1"/><v:tabList/>Availability <tspan
							x="39.96" dy="1.2em" class="st5">set</tspan></text>			</g>
			<g id="group1042-67" transform="translate(13.5,-99)" v:mID="1042" v:groupContext="group" v:layerMember="0">
				<title>Azure load balancer.1089</title>
				<g id="group1043-68" transform="translate(1.24615,-1.10769)" v:mID="1043" v:groupContext="group" v:layerMember="0">
					<title>Sheet.1043</title>
					<g id="shape1044-69" v:mID="1044" v:groupContext="shape" v:layerMember="0">
						<title>Sheet.1044</title>
						<path d="M67.57 752.68 L39.32 724.43 C38.08 723.18 36.55 722.49 34.75 722.49 C33.09 722.49 31.43 723.18 30.18
									 724.43 L1.94 752.68 C0.69 753.92 0 755.45 0 757.25 C0 758.91 0.69 760.57 1.94 761.82 L30.18
									 790.06 C31.43 791.31 32.95 792 34.75 792 C36.42 792 38.08 791.31 39.32 790.06 L67.57 761.82
									 C68.82 760.57 69.51 759.05 69.51 757.25 C69.37 755.45 68.68 753.78 67.57 752.68 ZM54.14 765.83
									 L54.14 759.46 L44.45 759.46 C43.48 762.78 40.85 765.42 37.52 766.38 L37.52 772.89 C38.91 773.86
									 40.98 776.08 40.98 778.43 C40.98 781.89 38.22 784.66 34.75 784.66 C31.29 784.66 28.52 781.89
									 28.52 778.43 C28.52 775.94 30.6 773.86 31.98 772.89 L31.98 766.52 C28.66 765.55 26.03 762.92
									 25.06 759.6 L15.37 759.6 L15.37 766.11 L6.23 756.97 L15.37 747.83 L15.37 754.2 L25.06 754.2
									 C26.03 750.88 28.66 748.25 31.98 747.28 L31.98 738 L25.62 738 L34.75 728.86 L43.89 738 L37.52
									 738 L37.52 747.28 C40.85 748.25 43.48 750.88 44.45 754.2 L54.14 754.2 L54.14 747.69 L63.28 756.83
									 L54.14 765.83 Z" class="st3"/>
					</g>
					<g id="shape1045-71" v:mID="1045" v:groupContext="shape" v:layerMember="0"
							transform="translate(27.4154,-27.9692)">
						<title>Sheet.1045</title>
						<path d="M7.34 777.32 C3.32 777.32 0 780.65 0 784.66 C-0 788.68 3.32 792 7.34 792 C11.35 792 14.68 788.68
									 14.68 784.66 C14.68 780.65 11.35 777.32 7.34 777.32 Z" class="st3"/>
					</g>
				</g>
			</g>
			<g id="group1046-73" transform="translate(109.8,-99)" v:mID="1046" v:groupContext="group" v:layerMember="0">
				<title>Virtual machine (opaque).125</title>
				<g id="shape1047-74" v:mID="1047" v:groupContext="shape" v:layerMember="0" transform="translate(28.287,-32.3232)">
					<title>Sheet.1047</title>
					<path d="M0 792 L32.63 792 L32.63 769.22 L0 769.22 L0 792 ZM23.5 785.35 L17.36 789.04 L17.36 781.69 L23.5 778
								 L23.5 785.35 ZM16.8 773.26 L22.94 776.97 L16.84 780.64 L10.68 776.95 L16.8 773.26 ZM10.09 777.96
								 L16.23 781.64 L16.23 789.04 L10.09 785.35 L10.09 777.96 Z" class="st13"/>
				</g>
				<g id="shape1048-76" v:mID="1048" v:groupContext="shape" v:layerMember="0">
					<title>Sheet.1048</title>
					<path d="M82.59 720 L3.81 720 C1.72 720 0 721.79 0 723.97 L0 788.03 C0 790.23 1.72 792 3.81 792 L82.59 792 C84.7
								 792 86.4 790.23 86.4 788.03 L86.4 723.97 C86.4 721.79 84.7 720 82.59 720 ZM42.92 779.61 L40.51 787.05
								 C40.49 787.12 40.47 787.18 40.43 787.23 C40.4 787.27 40.34 787.31 40.27 787.33 C40.2 787.35 40.09
								 787.37 39.97 787.37 C39.84 787.38 39.67 787.39 39.46 787.39 C39.3 787.39 39.16 787.38 39.04 787.38
								 C38.92 787.38 38.82 787.37 38.73 787.36 C38.65 787.36 38.58 787.34 38.53 787.33 C38.48 787.31 38.44
								 787.29 38.4 787.26 C38.36 787.24 38.34 787.2 38.32 787.17 C38.3 787.13 38.28 787.09 38.27 787.03
								 L35.87 779.59 C35.82 779.44 35.79 779.31 35.78 779.22 C35.77 779.13 35.79 779.06 35.84 779.02 C35.89
								 778.97 35.98 778.94 36.1 778.93 C36.23 778.92 36.4 778.92 36.63 778.92 C36.82 778.92 36.97 778.92
								 37.08 778.93 C37.18 778.94 37.27 778.95 37.32 778.97 C37.38 779 37.42 779.03 37.45 779.07 C37.47
								 779.12 37.49 779.17 37.51 779.23 L39.47 785.7 L39.48 785.7 L41.4 779.27 C41.42 779.19 41.44 779.13
								 41.46 779.09 C41.49 779.04 41.53 779.01 41.59 778.98 C41.65 778.96 41.73 778.94 41.85 778.93 C41.96
								 778.92 42.11 778.92 42.31 778.92 C42.5 778.92 42.65 778.92 42.75 778.94 C42.86 778.95 42.93 778.98
								 42.97 779.03 C43.01 779.08 43.02 779.15 43.01 779.24 C43 779.33 42.97 779.45 42.92 779.61 ZM53.43
								 787.11 C53.43 787.16 53.42 787.2 53.39 787.23 C53.37 787.27 53.33 787.29 53.27 787.31 C53.21 787.34
								 53.13 787.35 53.03 787.37 C52.93 787.38 52.81 787.39 52.65 787.39 C52.5 787.39 52.38 787.38 52.28
								 787.37 C52.18 787.35 52.1 787.34 52.04 787.31 C51.98 787.29 51.94 787.27 51.92 787.23 C51.89 787.19
								 51.88 787.16 51.88 787.11 L51.88 780.29 L51.87 780.29 L49.53 787.11 C49.52 787.16 49.49 787.21 49.45
								 787.25 C49.41 787.29 49.36 787.31 49.3 787.34 C49.23 787.36 49.15 787.37 49.05 787.38 C48.95 787.38
								 48.83 787.39 48.69 787.39 C48.55 787.39 48.43 787.38 48.33 787.37 C48.23 787.36 48.15 787.34 48.08
								 787.32 C48.02 787.29 47.97 787.27 47.93 787.23 C47.89 787.19 47.87 787.16 47.85 787.11 L45.6 780.29
								 L45.59 780.29 L45.59 787.11 C45.59 787.16 45.58 787.2 45.56 787.23 C45.53 787.27 45.49 787.29 45.43
								 787.31 C45.37 787.34 45.29 787.35 45.19 787.37 C45.09 787.38 44.97 787.39 44.81 787.39 C44.66 787.39
								 44.54 787.38 44.44 787.37 C44.34 787.35 44.26 787.34 44.2 787.31 C44.14 787.29 44.1 787.27 44.07
								 787.23 C44.05 787.19 44.04 787.16 44.04 787.11 L44.04 779.64 C44.04 779.42 44.09 779.25 44.2 779.13
								 C44.32 779.02 44.47 778.96 44.65 778.96 L45.72 778.96 C45.91 778.96 46.08 778.97 46.22 779.01 C46.35
								 779.04 46.47 779.09 46.57 779.17 C46.67 779.25 46.75 779.34 46.82 779.47 C46.89 779.59 46.95 779.74
								 46.99 779.92 L48.74 784.92 L48.76 784.92 L50.57 779.94 C50.62 779.76 50.68 779.6 50.74 779.48 C50.81
								 779.35 50.88 779.25 50.97 779.17 C51.05 779.09 51.15 779.04 51.27 779.01 C51.39 778.98 51.52 778.96
								 51.68 778.96 L52.78 778.96 C52.89 778.96 52.99 778.97 53.07 779 C53.15 779.03 53.21 779.08 53.27
								 779.14 C53.32 779.19 53.36 779.26 53.38 779.35 C53.41 779.44 53.42 779.53 53.42 779.64 L53.42 787.11
								 L53.43 787.11 ZM63.58 760.29 C63.58 761.49 62.66 762.45 61.51 762.45 L49.65 762.45 C48.49 767.28
								 49.04 767.87 57.06 767.87 L57.06 769.86 L47.72 769.86 L40.91 769.86 L32.15 769.86 L32.15 767.87
								 C39.35 767.87 40.54 767.28 39.41 762.45 L27.7 762.45 C26.55 762.45 25.63 761.49 25.63 760.29 L25.63
								 736.29 C25.63 735.09 26.55 734.11 27.7 734.11 L61.51 734.11 C62.66 734.11 63.58 735.09 63.58 736.29
								 L63.58 760.29 L63.58 760.29 Z" class="st13"/>
				</g>
			</g>
			<g id="group1049-78" transform="translate(109.8,-180)" v:mID="1049" v:groupContext="group" v:layerMember="0">
				<title>Virtual machine (opaque).1096</title>
				<g id="shape1050-79" v:mID="1050" v:groupContext="shape" v:layerMember="0" transform="translate(28.287,-32.3232)">
					<title>Sheet.1050</title>
					<path d="M0 792 L32.63 792 L32.63 769.22 L0 769.22 L0 792 ZM23.5 785.35 L17.36 789.04 L17.36 781.69 L23.5 778
								 L23.5 785.35 ZM16.8 773.26 L22.94 776.97 L16.84 780.64 L10.68 776.95 L16.8 773.26 ZM10.09 777.96
								 L16.23 781.64 L16.23 789.04 L10.09 785.35 L10.09 777.96 Z" class="st13"/>
				</g>
				<g id="shape1051-81" v:mID="1051" v:groupContext="shape" v:layerMember="0">
					<title>Sheet.1051</title>
					<path d="M82.59 720 L3.81 720 C1.72 720 0 721.79 0 723.97 L0 788.03 C0 790.23 1.72 792 3.81 792 L82.59 792 C84.7
								 792 86.4 790.23 86.4 788.03 L86.4 723.97 C86.4 721.79 84.7 720 82.59 720 ZM42.92 779.61 L40.51 787.05
								 C40.49 787.12 40.47 787.18 40.43 787.23 C40.4 787.27 40.34 787.31 40.27 787.33 C40.2 787.35 40.09
								 787.37 39.97 787.37 C39.84 787.38 39.67 787.39 39.46 787.39 C39.3 787.39 39.16 787.38 39.04 787.38
								 C38.92 787.38 38.82 787.37 38.73 787.36 C38.65 787.36 38.58 787.34 38.53 787.33 C38.48 787.31 38.44
								 787.29 38.4 787.26 C38.36 787.24 38.34 787.2 38.32 787.17 C38.3 787.13 38.28 787.09 38.27 787.03
								 L35.87 779.59 C35.82 779.44 35.79 779.31 35.78 779.22 C35.77 779.13 35.79 779.06 35.84 779.02 C35.89
								 778.97 35.98 778.94 36.1 778.93 C36.23 778.92 36.4 778.92 36.63 778.92 C36.82 778.92 36.97 778.92
								 37.08 778.93 C37.18 778.94 37.27 778.95 37.32 778.97 C37.38 779 37.42 779.03 37.45 779.07 C37.47
								 779.12 37.49 779.17 37.51 779.23 L39.47 785.7 L39.48 785.7 L41.4 779.27 C41.42 779.19 41.44 779.13
								 41.46 779.09 C41.49 779.04 41.53 779.01 41.59 778.98 C41.65 778.96 41.73 778.94 41.85 778.93 C41.96
								 778.92 42.11 778.92 42.31 778.92 C42.5 778.92 42.65 778.92 42.75 778.94 C42.86 778.95 42.93 778.98
								 42.97 779.03 C43.01 779.08 43.02 779.15 43.01 779.24 C43 779.33 42.97 779.45 42.92 779.61 ZM53.43
								 787.11 C53.43 787.16 53.42 787.2 53.39 787.23 C53.37 787.27 53.33 787.29 53.27 787.31 C53.21 787.34
								 53.13 787.35 53.03 787.37 C52.93 787.38 52.81 787.39 52.65 787.39 C52.5 787.39 52.38 787.38 52.28
								 787.37 C52.18 787.35 52.1 787.34 52.04 787.31 C51.98 787.29 51.94 787.27 51.92 787.23 C51.89 787.19
								 51.88 787.16 51.88 787.11 L51.88 780.29 L51.87 780.29 L49.53 787.11 C49.52 787.16 49.49 787.21 49.45
								 787.25 C49.41 787.29 49.36 787.31 49.3 787.34 C49.23 787.36 49.15 787.37 49.05 787.38 C48.95 787.38
								 48.83 787.39 48.69 787.39 C48.55 787.39 48.43 787.38 48.33 787.37 C48.23 787.36 48.15 787.34 48.08
								 787.32 C48.02 787.29 47.97 787.27 47.93 787.23 C47.89 787.19 47.87 787.16 47.85 787.11 L45.6 780.29
								 L45.59 780.29 L45.59 787.11 C45.59 787.16 45.58 787.2 45.56 787.23 C45.53 787.27 45.49 787.29 45.43
								 787.31 C45.37 787.34 45.29 787.35 45.19 787.37 C45.09 787.38 44.97 787.39 44.81 787.39 C44.66 787.39
								 44.54 787.38 44.44 787.37 C44.34 787.35 44.26 787.34 44.2 787.31 C44.14 787.29 44.1 787.27 44.07
								 787.23 C44.05 787.19 44.04 787.16 44.04 787.11 L44.04 779.64 C44.04 779.42 44.09 779.25 44.2 779.13
								 C44.32 779.02 44.47 778.96 44.65 778.96 L45.72 778.96 C45.91 778.96 46.08 778.97 46.22 779.01 C46.35
								 779.04 46.47 779.09 46.57 779.17 C46.67 779.25 46.75 779.34 46.82 779.47 C46.89 779.59 46.95 779.74
								 46.99 779.92 L48.74 784.92 L48.76 784.92 L50.57 779.94 C50.62 779.76 50.68 779.6 50.74 779.48 C50.81
								 779.35 50.88 779.25 50.97 779.17 C51.05 779.09 51.15 779.04 51.27 779.01 C51.39 778.98 51.52 778.96
								 51.68 778.96 L52.78 778.96 C52.89 778.96 52.99 778.97 53.07 779 C53.15 779.03 53.21 779.08 53.27
								 779.14 C53.32 779.19 53.36 779.26 53.38 779.35 C53.41 779.44 53.42 779.53 53.42 779.64 L53.42 787.11
								 L53.43 787.11 ZM63.58 760.29 C63.58 761.49 62.66 762.45 61.51 762.45 L49.65 762.45 C48.49 767.28
								 49.04 767.87 57.06 767.87 L57.06 769.86 L47.72 769.86 L40.91 769.86 L32.15 769.86 L32.15 767.87
								 C39.35 767.87 40.54 767.28 39.41 762.45 L27.7 762.45 C26.55 762.45 25.63 761.49 25.63 760.29 L25.63
								 736.29 C25.63 735.09 26.55 734.11 27.7 734.11 L61.51 734.11 C62.66 734.11 63.58 735.09 63.58 736.29
								 L63.58 760.29 L63.58 760.29 Z" class="st13"/>
				</g>
			</g>
			<g id="group1052-83" transform="translate(109.8,-18)" v:mID="1052" v:groupContext="group" v:layerMember="0">
				<title>Virtual machine (opaque).1099</title>
				<g id="shape1053-84" v:mID="1053" v:groupContext="shape" v:layerMember="0" transform="translate(28.287,-32.3232)">
					<title>Sheet.1053</title>
					<path d="M0 792 L32.63 792 L32.63 769.22 L0 769.22 L0 792 ZM23.5 785.35 L17.36 789.04 L17.36 781.69 L23.5 778
								 L23.5 785.35 ZM16.8 773.26 L22.94 776.97 L16.84 780.64 L10.68 776.95 L16.8 773.26 ZM10.09 777.96
								 L16.23 781.64 L16.23 789.04 L10.09 785.35 L10.09 777.96 Z" class="st13"/>
				</g>
				<g id="shape1054-86" v:mID="1054" v:groupContext="shape" v:layerMember="0">
					<title>Sheet.1054</title>
					<path d="M82.59 720 L3.81 720 C1.72 720 0 721.79 0 723.97 L0 788.03 C0 790.23 1.72 792 3.81 792 L82.59 792 C84.7
								 792 86.4 790.23 86.4 788.03 L86.4 723.97 C86.4 721.79 84.7 720 82.59 720 ZM42.92 779.61 L40.51 787.05
								 C40.49 787.12 40.47 787.18 40.43 787.23 C40.4 787.27 40.34 787.31 40.27 787.33 C40.2 787.35 40.09
								 787.37 39.97 787.37 C39.84 787.38 39.67 787.39 39.46 787.39 C39.3 787.39 39.16 787.38 39.04 787.38
								 C38.92 787.38 38.82 787.37 38.73 787.36 C38.65 787.36 38.58 787.34 38.53 787.33 C38.48 787.31 38.44
								 787.29 38.4 787.26 C38.36 787.24 38.34 787.2 38.32 787.17 C38.3 787.13 38.28 787.09 38.27 787.03
								 L35.87 779.59 C35.82 779.44 35.79 779.31 35.78 779.22 C35.77 779.13 35.79 779.06 35.84 779.02 C35.89
								 778.97 35.98 778.94 36.1 778.93 C36.23 778.92 36.4 778.92 36.63 778.92 C36.82 778.92 36.97 778.92
								 37.08 778.93 C37.18 778.94 37.27 778.95 37.32 778.97 C37.38 779 37.42 779.03 37.45 779.07 C37.47
								 779.12 37.49 779.17 37.51 779.23 L39.47 785.7 L39.48 785.7 L41.4 779.27 C41.42 779.19 41.44 779.13
								 41.46 779.09 C41.49 779.04 41.53 779.01 41.59 778.98 C41.65 778.96 41.73 778.94 41.85 778.93 C41.96
								 778.92 42.11 778.92 42.31 778.92 C42.5 778.92 42.65 778.92 42.75 778.94 C42.86 778.95 42.93 778.98
								 42.97 779.03 C43.01 779.08 43.02 779.15 43.01 779.24 C43 779.33 42.97 779.45 42.92 779.61 ZM53.43
								 787.11 C53.43 787.16 53.42 787.2 53.39 787.23 C53.37 787.27 53.33 787.29 53.27 787.31 C53.21 787.34
								 53.13 787.35 53.03 787.37 C52.93 787.38 52.81 787.39 52.65 787.39 C52.5 787.39 52.38 787.38 52.28
								 787.37 C52.18 787.35 52.1 787.34 52.04 787.31 C51.98 787.29 51.94 787.27 51.92 787.23 C51.89 787.19
								 51.88 787.16 51.88 787.11 L51.88 780.29 L51.87 780.29 L49.53 787.11 C49.52 787.16 49.49 787.21 49.45
								 787.25 C49.41 787.29 49.36 787.31 49.3 787.34 C49.23 787.36 49.15 787.37 49.05 787.38 C48.95 787.38
								 48.83 787.39 48.69 787.39 C48.55 787.39 48.43 787.38 48.33 787.37 C48.23 787.36 48.15 787.34 48.08
								 787.32 C48.02 787.29 47.97 787.27 47.93 787.23 C47.89 787.19 47.87 787.16 47.85 787.11 L45.6 780.29
								 L45.59 780.29 L45.59 787.11 C45.59 787.16 45.58 787.2 45.56 787.23 C45.53 787.27 45.49 787.29 45.43
								 787.31 C45.37 787.34 45.29 787.35 45.19 787.37 C45.09 787.38 44.97 787.39 44.81 787.39 C44.66 787.39
								 44.54 787.38 44.44 787.37 C44.34 787.35 44.26 787.34 44.2 787.31 C44.14 787.29 44.1 787.27 44.07
								 787.23 C44.05 787.19 44.04 787.16 44.04 787.11 L44.04 779.64 C44.04 779.42 44.09 779.25 44.2 779.13
								 C44.32 779.02 44.47 778.96 44.65 778.96 L45.72 778.96 C45.91 778.96 46.08 778.97 46.22 779.01 C46.35
								 779.04 46.47 779.09 46.57 779.17 C46.67 779.25 46.75 779.34 46.82 779.47 C46.89 779.59 46.95 779.74
								 46.99 779.92 L48.74 784.92 L48.76 784.92 L50.57 779.94 C50.62 779.76 50.68 779.6 50.74 779.48 C50.81
								 779.35 50.88 779.25 50.97 779.17 C51.05 779.09 51.15 779.04 51.27 779.01 C51.39 778.98 51.52 778.96
								 51.68 778.96 L52.78 778.96 C52.89 778.96 52.99 778.97 53.07 779 C53.15 779.03 53.21 779.08 53.27
								 779.14 C53.32 779.19 53.36 779.26 53.38 779.35 C53.41 779.44 53.42 779.53 53.42 779.64 L53.42 787.11
								 L53.43 787.11 ZM63.58 760.29 C63.58 761.49 62.66 762.45 61.51 762.45 L49.65 762.45 C48.49 767.28
								 49.04 767.87 57.06 767.87 L57.06 769.86 L47.72 769.86 L40.91 769.86 L32.15 769.86 L32.15 767.87
								 C39.35 767.87 40.54 767.28 39.41 762.45 L27.7 762.45 C26.55 762.45 25.63 761.49 25.63 760.29 L25.63
								 736.29 C25.63 735.09 26.55 734.11 27.7 734.11 L61.51 734.11 C62.66 734.11 63.58 735.09 63.58 736.29
								 L63.58 760.29 L63.58 760.29 Z" class="st13"/>
				</g>
			</g>
			<g id="shape1055-88" v:mID="1055" v:groupContext="shape" v:layerMember="0" transform="translate(85.5,-135)">
				<title>Dynamic connector.1055</title>
				<path d="M0 792 L17.45 720.75" class="st14"/>
			</g>
			<g id="shape1056-94" v:mID="1056" v:groupContext="shape" v:layerMember="0" transform="translate(85.5,-126)">
				<title>Dynamic connector.1125</title>
				<path d="M0 783 L9.8 783" class="st14"/>
			</g>
			<g id="shape1057-99" v:mID="1057" v:groupContext="shape" v:layerMember="0" transform="translate(85.5,-135)">
				<title>Dynamic connector.1126</title>
				<path d="M0 792 L17.45 863.25" class="st14"/>
			</g>
			<g id="group1058-104" transform="translate(12.5791,-252)" v:mID="1058" v:groupContext="group" v:layerMember="0">
				<title>Sheet.1058</title>
				<desc>NSG</desc>
				<g id="shape1059-105" v:mID="1059" v:groupContext="shape" v:layerMember="0">
					<title>Lock, protected.1135</title>
					<path d="M43.76 755.37 L40.68 755.37 L40.68 749.7 C40.68 737.7 33.06 731.54 24.15 731.54 L22.69 731.54 C13.61
								 731.54 6.16 737.54 6.16 749.7 L6.16 755.37 L3.08 755.37 C1.78 755.37 0 757.15 0 758.45 L0 788.92
								 C0 790.22 1.78 792 3.08 792 L43.76 792 C45.06 792 46.84 790.22 46.84 788.92 L46.84 758.45 C46.84
								 757.15 45.06 755.37 43.76 755.37 ZM25.77 773.36 L25.77 786 L21.23 786 L21.23 773.36 C19.45 772.55
								 18.15 770.77 18.15 768.66 C18.15 765.74 20.58 763.31 23.5 763.31 C26.42 763.31 28.85 765.74 28.85
								 768.66 C28.69 770.61 27.55 772.39 25.77 773.36 ZM35.01 755.37 L11.83 755.37 L11.83 749.7 C11.83
								 742.08 15.88 736.89 22.69 736.89 L24.15 736.89 C31.12 736.89 35.01 742.08 35.01 749.7 L35.01 755.37
								 Z" class="st16"/>
				</g>
				<g id="shape1060-107" v:mID="1060" v:groupContext="shape" v:layerMember="0" transform="translate(6.97432,-1.19204)">
					<title>Sheet.1060</title>
					<rect x="0" y="760.299" width="32.8932" height="31.7012" class="st17"/>
				</g>
				<g id="shape1058-109" v:mID="1058" v:groupContext="groupContent" v:layerMember="0">
					<v:textBlock v:margins="rect(4,4,4,4)"/>
					<v:textRect cx="23.4209" cy="774.636" width="46.85" height="34.7284"/>
					<text x="5.73" y="780.04" class="st18" v:langID="1033"><v:paragraph v:horizAlign="1"/><v:tabList/>NSG</text>				</g>
			</g>
		</g>
		<g id="shape1143-111" v:mID="1143" v:groupContext="shape" v:layerMember="0" transform="translate(252,-234)">
			<title>Dynamic connector.1074</title>
			<path d="M9 792 L9 654.94" class="st19"/>
		</g>
		<a
				xlink:href="https://ms.portal.azure.com/#resource/subscriptions/3b518fac-e5c8-4f59-8ed5-d70b626f8e10/resourceGroups/ha-nva-test-rg/providers/Microsoft.Network/publicIPAddresses/nva-lb-fe-pip/overview">
			<g id="shape1177-117" v:mID="1177" v:groupContext="shape" v:layerMember="0" transform="translate(216,-198)">
				<title>Sheet.1177</title>
				<desc>PIP</desc>
				<v:textBlock v:margins="rect(4,4,4,4)"/>
				<v:textRect cx="54" cy="774" width="108" height="36"/>
				<rect x="0" y="756" width="108" height="36" class="st21"/>
				<text x="41.52" y="779.4" class="st4" v:langID="1033"><v:paragraph v:horizAlign="1"/><v:tabList/>PIP</text>			</g>
		</a>
		<g id="shape1179-120" v:mID="1179" v:groupContext="shape" v:layerMember="0" transform="translate(139.872,-207)">
			<title>Dynamic connector.1179</title>
			<path d="M0 783 L61.09 783" class="st19"/>
		</g>
		<a
				xlink:href="https://ms.portal.azure.com/#resource/subscriptions/3b518fac-e5c8-4f59-8ed5-d70b626f8e10/resourceGroups/ha-nva-test-rg/providers/Microsoft.Network/routeTables/ha-nva-test-udr/overview">
			<g id="shape1181-125" v:mID="1181" v:groupContext="shape" v:layerMember="0" transform="translate(688.5,-324)">
				<title>Sheet.1181</title>
				<desc>UDR</desc>
				<v:textBlock v:margins="rect(4,4,4,4)"/>
				<v:textRect cx="36" cy="765" width="72" height="54"/>
				<rect x="0" y="738" width="72" height="54" class="st21"/>
				<text x="18.12" y="770.4" class="st4" v:langID="1033"><v:paragraph v:horizAlign="1"/><v:tabList/>UDR</text>			</g>
		</a>
		<g id="shape1183-128" v:mID="1183" v:groupContext="shape" v:layerMember="0" transform="translate(270,-386.1)">
			<title>Dynamic connector.1183</title>
			<path d="M9 792 L9 929.06" class="st22"/>
		</g>
		<g id="shape1186-134" v:mID="1186" v:groupContext="shape" v:layerMember="0" transform="translate(558,-237.604)">
			<title>Dynamic connector.1116</title>
			<desc>Ingress traffic</desc>
			<v:textBlock v:margins="rect(4,4,4,4)"/>
			<v:textRect cx="169.578" cy="783" width="119.85" height="29.6036"/>
			<path d="M0 783.9 L85.14 782.1" class="st24"/>
			<rect v:rectContext="textBkgnd" x="113.656" y="772.2" width="106.91" height="21.5999" class="st25"/>
			<text x="113.66" y="788.4" class="st10" v:langID="1033"><v:paragraph/><v:tabList/>Ingress traffic</text>		</g>
		<g id="shape1187-139" v:mID="1187" v:groupContext="shape" v:layerMember="0" transform="translate(558,-201.604)">
			<title>Dynamic connector.1117</title>
			<desc>Egress traffic</desc>
			<v:textBlock v:margins="rect(4,4,4,4)"/>
			<v:textRect cx="164.987" cy="783" width="113.98" height="29.6036"/>
			<path d="M0 783.9 L85.14 782.1" class="st26"/>
			<rect v:rectContext="textBkgnd" x="112" y="772.2" width="101.039" height="21.5999" class="st25"/>
			<text x="112" y="788.4" class="st10" v:langID="1033"><v:paragraph/><v:tabList/>Egress traffic</text>		</g>
		<g id="shape1188-144" v:mID="1188" v:groupContext="shape" v:layerMember="0" transform="translate(328.412,-306)">
			<title>Sheet.1188</title>
			<desc>DMZ - internal 10.0.0.96/27</desc>
			<v:textBlock v:margins="rect(4,4,4,4)" v:verticalAlign="0"/>
			<v:textRect cx="150.794" cy="444" width="301.59" height="48"/>
			<path d="M0 792 L301.59 792 L301.59 468 L0 468 L0 792 Z" class="st8"/>
			<text x="4" y="440.2" class="st10" v:langID="1033"><v:paragraph/><v:tabList/>DMZ - internal<v:newlineChar/><tspan x="4"
						dy="1.2em" class="st5">10.0.0.96/27</tspan></text>		</g>
		<g id="group1014-150" transform="translate(336.579,-558)" v:mID="1014" v:groupContext="group" v:layerMember="0">
			<title>Sheet.1014</title>
			<desc>NSG</desc>
			<g id="shape1015-151" v:mID="1015" v:groupContext="shape" v:layerMember="0">
				<title>Lock, protected.1135</title>
				<path d="M43.76 755.37 L40.68 755.37 L40.68 749.7 C40.68 737.7 33.06 731.54 24.15 731.54 L22.69 731.54 C13.61 731.54
							 6.16 737.54 6.16 749.7 L6.16 755.37 L3.08 755.37 C1.78 755.37 0 757.15 0 758.45 L0 788.92 C0 790.22
							 1.78 792 3.08 792 L43.76 792 C45.06 792 46.84 790.22 46.84 788.92 L46.84 758.45 C46.84 757.15 45.06
							 755.37 43.76 755.37 ZM25.77 773.36 L25.77 786 L21.23 786 L21.23 773.36 C19.45 772.55 18.15 770.77 18.15
							 768.66 C18.15 765.74 20.58 763.31 23.5 763.31 C26.42 763.31 28.85 765.74 28.85 768.66 C28.69 770.61
							 27.55 772.39 25.77 773.36 ZM35.01 755.37 L11.83 755.37 L11.83 749.7 C11.83 742.08 15.88 736.89 22.69
							 736.89 L24.15 736.89 C31.12 736.89 35.01 742.08 35.01 749.7 L35.01 755.37 Z" class="st16"/>
			</g>
			<g id="shape1016-153" v:mID="1016" v:groupContext="shape" v:layerMember="0" transform="translate(6.97432,-1.19204)">
				<title>Sheet.1016</title>
				<rect x="0" y="760.299" width="32.8932" height="31.7012" class="st17"/>
			</g>
			<g id="shape1014-155" v:mID="1014" v:groupContext="groupContent" v:layerMember="0">
				<v:textBlock v:margins="rect(4,4,4,4)"/>
				<v:textRect cx="23.4209" cy="774.636" width="46.85" height="34.7284"/>
				<text x="5.73" y="780.04" class="st18" v:langID="1033"><v:paragraph v:horizAlign="1"/><v:tabList/>NSG</text>			</g>
		</g>
		<g id="group1189-157" transform="translate(83.6582,-558)" v:mID="1189" v:groupContext="group" v:layerMember="0">
			<title>Sheet.1189</title>
			<desc>NSG</desc>
			<g id="shape1190-158" v:mID="1190" v:groupContext="shape" v:layerMember="0">
				<title>Lock, protected.1135</title>
				<path d="M43.76 755.37 L40.68 755.37 L40.68 749.7 C40.68 737.7 33.06 731.54 24.15 731.54 L22.69 731.54 C13.61 731.54
							 6.16 737.54 6.16 749.7 L6.16 755.37 L3.08 755.37 C1.78 755.37 0 757.15 0 758.45 L0 788.92 C0 790.22
							 1.78 792 3.08 792 L43.76 792 C45.06 792 46.84 790.22 46.84 788.92 L46.84 758.45 C46.84 757.15 45.06
							 755.37 43.76 755.37 ZM25.77 773.36 L25.77 786 L21.23 786 L21.23 773.36 C19.45 772.55 18.15 770.77 18.15
							 768.66 C18.15 765.74 20.58 763.31 23.5 763.31 C26.42 763.31 28.85 765.74 28.85 768.66 C28.69 770.61
							 27.55 772.39 25.77 773.36 ZM35.01 755.37 L11.83 755.37 L11.83 749.7 C11.83 742.08 15.88 736.89 22.69
							 736.89 L24.15 736.89 C31.12 736.89 35.01 742.08 35.01 749.7 L35.01 755.37 Z" class="st16"/>
			</g>
			<g id="shape1191-160" v:mID="1191" v:groupContext="shape" v:layerMember="0" transform="translate(6.97432,-1.19204)">
				<title>Sheet.1191</title>
				<rect x="0" y="760.299" width="32.8932" height="31.7012" class="st17"/>
			</g>
			<g id="shape1189-162" v:mID="1189" v:groupContext="groupContent" v:layerMember="0">
				<v:textBlock v:margins="rect(4,4,4,4)"/>
				<v:textRect cx="23.4209" cy="774.636" width="46.85" height="34.7284"/>
				<text x="5.73" y="780.04" class="st18" v:langID="1033"><v:paragraph v:horizAlign="1"/><v:tabList/>NSG</text>			</g>
		</g>
		<g id="shape1182-164" v:mID="1182" v:groupContext="shape" v:layerMember="0" transform="translate(688.5,-351)">
			<title>Dynamic connector.1110</title>
			<path d="M0 792 L-254.59 723.86" class="st22"/>
		</g>
		<g id="shape1180-169" v:mID="1180" v:groupContext="shape" v:layerMember="0" transform="translate(419.377,-426.626)">
			<title>Dynamic connector.1180</title>
			<path d="M0 788.37 L249.6 778.24" class="st19"/>
		</g>
		<g id="shape1192-174" v:mID="1192" v:groupContext="shape" v:layerMember="0" transform="translate(120.623,-411.3)">
			<title>Sheet.1192</title>
			<desc>NIC</desc>
			<v:textBlock v:margins="rect(4,4,4,4)"/>
			<v:textRect cx="23.4209" cy="774" width="46.85" height="36"/>
			<rect x="0" y="756" width="46.8419" height="36" class="st21"/>
			<text x="8.72" y="779.4" class="st4" v:langID="1033"><v:paragraph v:horizAlign="1"/><v:tabList/>NIC</text>		</g>
		<g id="shape1193-177" v:mID="1193" v:groupContext="shape" v:layerMember="0" transform="translate(120.623,-502.2)">
			<title>Sheet.1193</title>
			<desc>NIC</desc>
			<v:textBlock v:margins="rect(4,4,4,4)"/>
			<v:textRect cx="23.4209" cy="774" width="46.85" height="36"/>
			<rect x="0" y="756" width="46.8419" height="36" class="st21"/>
			<text x="8.72" y="779.4" class="st4" v:langID="1033"><v:paragraph v:horizAlign="1"/><v:tabList/>NIC</text>		</g>
		<g id="shape1194-180" v:mID="1194" v:groupContext="shape" v:layerMember="0" transform="translate(372.535,-502.2)">
			<title>Sheet.1194</title>
			<desc>NIC</desc>
			<v:textBlock v:margins="rect(4,4,4,4)"/>
			<v:textRect cx="23.4209" cy="774" width="46.85" height="36"/>
			<rect x="0" y="756" width="46.8419" height="36" class="st21"/>
			<text x="8.72" y="779.4" class="st4" v:langID="1033"><v:paragraph v:horizAlign="1"/><v:tabList/>NIC</text>		</g>
		<g id="shape1195-183" v:mID="1195" v:groupContext="shape" v:layerMember="0" transform="translate(372.535,-411.3)">
			<title>Sheet.1195</title>
			<desc>NIC</desc>
			<v:textBlock v:margins="rect(4,4,4,4)"/>
			<v:textRect cx="23.4209" cy="774" width="46.85" height="36"/>
			<rect x="0" y="756" width="46.8419" height="36" class="st21"/>
			<text x="8.72" y="779.4" class="st4" v:langID="1033"><v:paragraph v:horizAlign="1"/><v:tabList/>NIC</text>		</g>
		<g id="shape1196-186" v:mID="1196" v:groupContext="shape" v:layerMember="0" transform="translate(167.465,-511.2)">
			<title>Dynamic connector.1126</title>
			<path d="M0 783 L56.87 783" class="st27"/>
		</g>
		<g id="shape1197-189" v:mID="1197" v:groupContext="shape" v:layerMember="0" transform="translate(167.465,-421.391)">
			<title>Dynamic connector.1197</title>
			<path d="M0 783.62 L60.53 782.38" class="st27"/>
		</g>
		<g id="shape1198-192" v:mID="1198" v:groupContext="shape" v:layerMember="0" transform="translate(310.737,-511.2)">
			<title>Dynamic connector.1198</title>
			<path d="M0 783 L61.8 783" class="st27"/>
		</g>
		<g id="shape1199-195" v:mID="1199" v:groupContext="shape" v:layerMember="0" transform="translate(310.737,-420.3)">
			<title>Dynamic connector.1199</title>
			<path d="M0 783 L61.8 783" class="st27"/>
		</g>
		<g id="shape1203-198" v:mID="1203" v:groupContext="shape" transform="translate(490.5,-481.5)">
			<title>Container Service (nc).1203</title>
			<desc>ZooKeeper nodes</desc>
			<v:textBlock v:margins="rect(0,0,0,0)"/>
			<v:textRect cx="54" cy="814.5" width="108" height="108"/>
			<path d="M91.58 719.9 L91.58 755.81 L108 747.34 L108 727.78 L91.58 719.9 ZM84.89 750.84 L83.81 750.26 L83.81 725.45 L84.89
						 725.16 L85.97 724.57 L87.26 723.99 L87.26 751.72 L85.97 751.14 L84.89 750.84 ZM81 749.09 L80.14 748.8 L80.14
						 726.91 L82.73 726.03 L82.73 749.97 L81.86 749.68 L81 749.09 ZM77.76 747.63 L77.11 747.34 L77.11 727.78 L79.06
						 726.91 L79.06 748.22 L77.76 747.63 ZM76.46 725.74 L76.46 749.38 L88.78 755.81 L88.78 719.9 L76.46 725.74
						 ZM71.5 684 L71.5 720.19 L88.13 711.44 L88.13 691.88 L71.5 684 ZM71.5 755.81 L71.5 792 L88.13 783.24 L88.13
						 763.69 L71.5 755.81 ZM65.02 714.94 L63.94 714.36 L63.94 689.55 L65.02 689.25 L66.1 688.67 L67.39 688.09
						 L67.39 715.82 L66.1 715.23 L65.02 714.94 ZM61.13 713.19 L60.26 712.9 L60.26 691.01 L62.86 690.13 L62.86
						 714.06 L61.99 713.77 L61.13 713.19 ZM57.89 712.02 L57.24 711.73 L57.24 692.17 L59.18 691.3 L59.18 712.61
						 L57.89 712.02 ZM56.59 690.13 L56.59 713.77 L68.9 720.19 L68.9 684.29 L56.59 690.13 ZM65.02 786.75 L63.94
						 786.16 L63.94 761.35 L65.02 761.06 L66.1 760.48 L67.39 759.89 L67.39 787.62 L66.1 787.04 L65.02 786.75 ZM61.13
						 784.99 L60.26 784.7 L60.26 762.81 L62.86 761.94 L62.86 785.87 L61.99 785.58 L61.13 784.99 ZM57.89 783.83
						 L57.24 783.54 L57.24 763.98 L59.18 763.1 L59.18 784.41 L57.89 783.83 ZM56.59 761.94 L56.59 785.58 L68.9
						 792 L68.9 756.1 L56.59 761.94 ZM53.57 719.9 L53.57 755.81 L69.98 747.34 L69.98 727.78 L53.57 719.9 ZM46.87
						 750.84 L45.79 750.26 L45.79 725.45 L46.87 725.16 L47.95 724.57 L49.25 723.99 L49.25 751.72 L47.95 751.14
						 L46.87 750.84 ZM42.98 749.09 L42.12 748.8 L42.12 726.91 L44.71 726.03 L44.71 749.97 L43.85 749.68 L42.98
						 749.09 ZM39.74 747.63 L39.1 747.34 L39.1 727.78 L41.04 726.91 L41.04 748.22 L39.74 747.63 ZM38.45 725.74
						 L38.45 749.38 L50.76 755.81 L50.76 719.9 L38.45 725.74 ZM32.83 684 L32.83 720.19 L49.46 711.44 L49.46 691.88
						 L32.83 684 ZM32.83 755.81 L32.83 792 L49.46 783.24 L49.46 763.69 L32.83 755.81 ZM26.35 714.94 L25.27 714.36
						 L25.27 689.55 L26.35 689.25 L27.43 688.67 L28.73 688.09 L28.73 715.82 L27.43 715.23 L26.35 714.94 ZM22.46
						 713.19 L21.6 712.9 L21.6 691.01 L24.19 690.13 L24.19 714.06 L23.33 713.77 L22.46 713.19 ZM19.22 712.02 L18.58
						 711.73 L18.58 692.17 L20.52 691.3 L20.52 712.61 L19.22 712.02 ZM17.93 690.13 L17.93 713.77 L30.24 720.19
						 L30.24 684.29 L17.93 690.13 ZM26.35 786.75 L25.27 786.16 L25.27 761.35 L26.35 761.06 L27.43 760.48 L28.73
						 759.89 L28.73 787.62 L27.43 787.04 L26.35 786.75 ZM22.46 784.99 L21.6 784.7 L21.6 762.81 L24.19 761.94 L24.19
						 785.87 L23.33 785.58 L22.46 784.99 ZM19.22 783.83 L18.58 783.54 L18.58 763.98 L20.52 763.1 L20.52 784.41
						 L19.22 783.83 ZM17.93 761.94 L17.93 785.58 L30.24 792 L30.24 756.1 L17.93 761.94 ZM15.12 719.9 L15.12 755.81
						 L31.54 747.34 L31.54 727.78 L15.12 719.9 ZM8.42 750.84 L7.34 750.26 L7.34 725.45 L8.42 725.16 L9.5 724.57
						 L10.8 723.99 L10.8 751.72 L9.5 751.14 L8.42 750.84 ZM4.54 749.09 L3.67 748.8 L3.67 726.91 L6.26 726.03 L6.26
						 749.97 L5.4 749.68 L4.54 749.09 ZM1.3 747.63 L0.65 747.34 L0.65 727.78 L2.59 726.91 L2.59 748.22 L1.3 747.63
						 ZM0 725.74 L0 749.38 L12.31 755.81 L12.31 719.9 L0 725.74 Z" class="st13"/>
			<text x="10.56" y="809.1" class="st4" v:langID="1033"><v:paragraph v:horizAlign="1"/><v:tabList/>ZooKeeper<v:newlineChar/><tspan
						x="29.81" dy="1.2em" class="st5">nodes</tspan></text>		</g>
		<g id="shape1204-202" v:mID="1204" v:groupContext="shape" v:layerMember="0" transform="translate(508.428,-509.711)">
			<title>Dynamic connector.1204</title>
			<path d="M0 792 L-76.82 846.92" class="st28"/>
		</g>
		<g id="shape1205-208" v:mID="1205" v:groupContext="shape" v:layerMember="0" transform="translate(558,-164.884)">
			<title>Dynamic connector.1205</title>
			<desc>Probing</desc>
			<v:textBlock v:margins="rect(4,4,4,4)"/>
			<v:textRect cx="153" cy="783" width="90" height="29.6036"/>
			<path d="M0 783.9 L85.14 782.1" class="st30"/>
			<rect v:rectContext="textBkgnd" x="112" y="772.2" width="62.6133" height="21.5999" class="st25"/>
			<text x="112" y="788.4" class="st10" v:langID="1033"><v:paragraph/><v:tabList/>Probing</text>		</g>
	</g>
</svg>
